<?xml version="1.0" encoding="utf-8"?>
<!-- Generator: Adobe Illustrator 25.4.1, SVG Export Plug-In . SVG Version: 6.00 Build 0)  -->
<svg version="1.1" id="Layer_1" xmlns="http://www.w3.org/2000/svg" xmlns:xlink="http://www.w3.org/1999/xlink" x="0px" y="0px"
	 viewBox="0 0 213 93" style="enable-background:new 0 0 213 93;" xml:space="preserve">
<style type="text/css">
	.st0{fill:#FFFFFF;}
	.st1{fill:#F0493F;}
	.st2{fill:#8CD1C6;}
	.st3{clip-path:url(#SVGID_00000176731037677410284450000015432891309349771432_);fill:#69C6B4;}
</style>
<g>
	<path class="st0" d="M77.8,92.5v-5.4c0.5,0.8,1.3,1.8,3.3,1.8c2.4,0,4.2-2,4.2-4.7c0-2.5-1.6-4.4-4-4.4c-1.9,0-3,0.9-3.5,1.9
		c0-0.8,0-1.4-0.1-1.7h-1c0,0.7,0,1.5,0,2.2v10.3H77.8L77.8,92.5z M84.2,84.2c0,1.9-1.1,3.7-3.2,3.7c-2.2,0-3.2-1.6-3.2-3.6
		c0-2,1-3.7,3.3-3.7C83.3,80.7,84.2,82.5,84.2,84.2L84.2,84.2z M94.6,82.6c0-1.4-0.8-2.8-3.6-2.8c-2.7,0-3.5,1.5-3.6,2.7h1
		c0.2-1,0.7-1.8,2.6-1.8c2.2,0,2.6,1.1,2.6,2.1v0.6h-2.3c-2.4,0-4.4,0.6-4.4,2.8c0,1.2,0.9,2.7,3.3,2.7c2,0,2.9-0.7,3.4-1.7
		c0,0.3,0,1,0.1,1.4h1c0-0.2-0.1-1.3-0.1-2L94.6,82.6L94.6,82.6z M93.6,84.7c0,1.6-0.6,3.3-3.3,3.3c-1.7,0-2.4-0.9-2.4-1.9
		c0-1.4,1.1-1.9,3.5-1.9h2.2L93.6,84.7L93.6,84.7z M96.2,80l4.1,9.1c-1,2.1-1.5,2.7-2.7,2.7c-0.2,0-0.7,0-1-0.1v1
		c0.3,0.1,0.7,0.1,1,0.1c1.7,0,2.4-0.5,3.9-4.1l3.7-8.6h-1.1c-1.9,4.5-2.9,7.1-3.2,7.9h0c-0.3-0.8-1.5-3.4-3.5-7.9L96.2,80L96.2,80z
		 M107,88.6h1v-4.5c0-1.9,0.7-3.4,2.6-3.4c1.8,0,2.1,1.3,2.1,2.5v5.5h1v-4.7c0-2.1,1.1-3.2,2.7-3.2c1.8,0,2.1,1.5,2.1,2.6v5.4h1
		v-5.4c0-2.5-1.4-3.5-3-3.5c-1.7,0-2.5,1-3,1.8c-0.4-1.1-1.3-1.8-2.7-1.8c-1.6,0-2.5,0.9-2.9,1.7c0-0.5,0-1.1,0-1.4h-1
		c0,0.7,0,1.5,0,2.2L107,88.6L107,88.6z M130.5,84.5v-0.3c0-2-1.1-4.5-4.3-4.5c-2.5,0-4.3,1.9-4.3,4.6c0,2.3,1.5,4.5,4.3,4.5
		c2.5,0,3.6-1.4,4.1-2.6h-1c-0.6,1-1.4,1.7-3,1.7c-2,0-3.3-1.4-3.4-3.4L130.5,84.5L130.5,84.5z M123,83.6c0.2-1.7,1.2-3,3.2-3
		c2.5,0,3.1,1.8,3.2,3H123L123,83.6z M132.8,88.6h1v-4.1c0-2.2,1-3.9,3.1-3.9c1.8,0,2.5,1.3,2.5,2.9v5h1v-5.2c0-2.5-1.3-3.7-3.3-3.7
		c-2,0-2.9,1.1-3.3,2.1c0-0.7,0-1.5-0.1-1.9h-1c0,0.7,0,1.5,0,2.2V88.6L132.8,88.6z M142,80.9h1.8v5.4c0,1.7,0.5,2.4,2.1,2.4
		c0.4,0,0.8,0,1.1-0.1v-0.8c-0.3,0.1-0.7,0.1-0.9,0.1c-1,0-1.3-0.5-1.3-1.6v-5.3h2.4V80h-2.4v-2.9h-1V80H142L142,80.9L142,80.9z
		 M148.4,86c0.3,1.7,1.6,2.8,4.2,2.8s3.8-1.1,3.8-2.6c0-1.3-0.7-2.2-3.8-2.6c-2.2-0.3-2.7-0.8-2.7-1.6c0-0.6,0.4-1.5,2.3-1.5
		c2.3,0,2.6,1.1,2.8,1.6h1c-0.1-0.9-0.8-2.5-3.7-2.5c-2.6,0-3.5,1.4-3.5,2.4c0,1.1,0.6,2.1,3.5,2.4c2.5,0.3,2.9,0.9,2.9,1.8
		c0,1-0.7,1.7-2.7,1.7c-1.8,0-2.8-0.7-3.2-2L148.4,86L148.4,86z"/>
	<path class="st0" d="M11.7,42.7H7v21.1c0,2.5,0.9,4.5,2.7,6c1.6,1.3,3.6,1.9,6,1.9c2.8,0,5.1-1,7-2.9c1.9-2,2.9-4.6,2.9-7.9
		c0-3-0.9-5.4-2.7-7.4c-0.8-0.9-1.8-1.5-2.9-2c-1.1-0.5-2.4-0.7-3.9-0.7c-1.5,0-3,0.4-4.4,1.1L11.7,42.7L11.7,42.7z M11.7,56.8
		c0.3-0.2,0.6-0.4,1-0.6c1.1-0.6,2.1-0.9,3-0.9c1.5,0,2.7,0.4,3.6,1.3c1,0.9,1.5,2.3,1.5,4.2c0,1.8-0.5,3.4-1.4,4.6
		c-0.9,1.2-2.1,1.8-3.5,1.8c-2.8,0-4.2-1.1-4.2-3.4V56.8L11.7,56.8z M44.8,71.8l3.5-3.2c-1.1-0.5-1.6-1.6-1.6-3v-7
		c0-1.2-0.2-2.3-0.6-3.3c-1.2-3-3.8-4.5-8-4.5c-2.7,0-5.2,0.6-7.5,1.8l0.6,4.3l0.1,0c0.5-0.5,1.4-1,2.7-1.4c0.6-0.2,1.1-0.3,1.7-0.4
		c0.6-0.1,1.2-0.2,1.8-0.2c0.6,0,1.2,0.1,1.8,0.2c1.7,0.3,2.6,1.5,2.7,3.6c-0.2,0-0.3,0-0.5-0.1s-0.4,0-0.5,0l-0.8,0
		c-3.4,0-6.1,0.7-8,2c-1.8,1.2-2.7,2.8-2.7,4.6c0,2.1,0.7,3.6,2.2,4.7c0.7,0.5,1.6,0.9,2.7,1.2s2.3,0.4,3.8,0.4c1.5,0,3.1-0.5,5-1.5
		C43.5,70.9,44.1,71.4,44.8,71.8L44.8,71.8z M42,66.2c0,0.2,0,0.3,0,0.4c-1.1,0.6-2.4,0.9-3.7,0.9c-1.3,0-2.3-0.2-3-0.6
		c-0.3-0.2-0.6-0.5-0.7-0.8c-0.2-0.3-0.2-0.7-0.2-1.1c0-0.4,0.1-0.8,0.3-1.2c0.8-1.3,2.6-1.9,5.4-1.9h0.8c0.4,0,0.7,0,1.1,0.1
		L42,66.2L42,66.2z M65.8,69.8c1.5-1.1,2.2-2.6,2.2-4.4c0-1.7-0.5-3-1.4-4c-0.5-0.6-1.2-1-2-1.4c-0.8-0.4-2-0.7-3.6-0.9
		c-1.6-0.2-2.8-0.6-3.7-1.1c-0.5-0.3-0.7-0.6-0.7-1.1c0-1.4,1.2-2.1,3.5-2.1c0.6,0,1.1,0.1,1.6,0.2c1.7,0.3,3,0.9,3.8,1.8
		c0.2,0.3,0.3,0.4,0.3,0.4c0,0,0-0.1,0.1-0.2l0.4-1.1c0.1-0.4,0.4-1,0.7-1.8c0.1-0.3,0.2-0.6,0.3-1c-1.9-1.5-4.2-2.3-6.8-2.3
		c-2.7,0-4.8,0.6-6.3,1.7c-1.5,1.1-2.3,2.7-2.3,4.7c0,1.6,0.5,3,1.6,4c0.6,0.5,1.4,1,2.3,1.4c0.9,0.4,2.1,0.7,3.6,0.9
		c1.5,0.2,2.6,0.5,3.3,0.9c0.4,0.2,0.6,0.6,0.6,1.1c0,1.5-1.1,2.2-3.3,2.2c-1.7,0-3.2-0.3-4.8-0.8c-0.7-0.2-1.3-0.5-1.9-0.8
		c-0.5-0.3-0.9-0.6-1.1-0.8c-0.2-0.2-0.3-0.3-0.3-0.3c0,0,0,0.1-0.1,0.4c0,0.2-0.1,0.8-0.2,1.7l-0.2,1.4c-0.1,0.5-0.1,0.9-0.1,1.3
		c1.8,1.3,4.6,2,8.2,2C62.2,71.6,64.3,71,65.8,69.8L65.8,69.8z M74.7,68.8c2.1,1.9,4.8,2.8,8.1,2.8c0.6,0,1.2,0,1.8-0.1
		c2.2-0.3,3.8-0.7,4.7-1.4l0.2-3c0-0.6,0.1-1.1,0.1-1.7c-0.2,0.2-0.5,0.3-0.9,0.5c-1.5,0.7-3.2,1.1-5.3,1.1c-2,0-3.5-0.4-4.8-1.1
		c-1.2-0.8-2-1.8-2.3-3.2h6.8c3.9,0,6.6-0.2,7.8-0.5c0.2-0.4,0.2-1.1,0.2-2.1c0-2.6-0.8-4.8-2.4-6.6c-1.7-1.8-3.9-2.7-6.6-2.7
		c-3.2,0-5.9,1-7.9,3.1c-0.9,1-1.7,2.1-2.2,3.4c-0.5,1.3-0.8,2.7-0.8,4.2C71.5,64.4,72.6,66.9,74.7,68.8L74.7,68.8z M85.1,59.1
		l-1.6,0.1c-0.6,0-1.3,0-1.9,0h-1.1c-0.4,0-0.9,0-1.4,0h-1.4c-0.4,0-0.8,0-1.1,0c0.2-0.6,0.4-1.2,0.7-1.7c1-1.7,2.5-2.5,4.4-2.5
		c2.5,0,4,1.4,4.5,4.1C85.9,59,85.5,59.1,85.1,59.1L85.1,59.1z M100,42.6h-4.8v28.7h4.9c-0.1-0.3-0.1-1.1-0.1-2.2V42.6L100,42.6z
		 M120.3,57.9c1.1-1.7,2.6-2.6,4.3-2.6c2.3,0,3.4,1.9,3.4,5.6v10.5c0.7,0,1.2-0.1,1.7-0.1h1.3c0.5,0,1.2,0,2.3,0.1l0-0.1
		c-0.1-0.1-0.2-0.2-0.3-0.3c-0.1-0.1-0.2-0.4-0.3-0.8c-0.1-0.4-0.1-1.7-0.1-3.9v-7.7c0-2.3-0.6-4.2-1.9-5.6c-1.3-1.4-2.9-2.1-5-2.1
		c-1.9,0-3.7,0.7-5.4,2.1v-1.7h-4.7v20.1h4.8c-0.1-0.5-0.2-1.3-0.2-2.5V57.9L120.3,57.9z M140.6,68.8c2.1,1.9,4.8,2.8,8.1,2.8
		c0.6,0,1.2,0,1.8-0.1c2.2-0.3,3.8-0.7,4.7-1.4l0.2-3c0-0.6,0.1-1.1,0.1-1.7c-0.2,0.2-0.5,0.3-0.9,0.5c-1.5,0.7-3.2,1.1-5.3,1.1
		c-2,0-3.5-0.4-4.8-1.1c-1.2-0.8-2-1.8-2.3-3.2h6.8c3.9,0,6.6-0.2,7.8-0.5c0.2-0.4,0.2-1.1,0.2-2.1c0-2.6-0.8-4.8-2.4-6.6
		c-1.7-1.8-3.9-2.7-6.6-2.7c-3.2,0-5.9,1-7.9,3.1c-0.9,1-1.7,2.1-2.2,3.4c-0.5,1.3-0.8,2.7-0.8,4.2
		C137.4,64.4,138.4,66.9,140.6,68.8L140.6,68.8z M150.9,59.1l-1.6,0.1c-0.6,0-1.3,0-1.9,0h-1.1c-0.4,0-0.9,0-1.4,0h-1.4
		c-0.4,0-0.8,0-1.1,0c0.2-0.6,0.4-1.2,0.7-1.7c1-1.7,2.5-2.5,4.4-2.5c2.5,0,4,1.4,4.5,4.1C151.7,59,151.3,59.1,150.9,59.1
		L150.9,59.1z"/>
	<path class="st0" d="M107.8,49c1.8,0,3.2-1.4,3.2-3.2c0-1.8-1.4-3.2-3.2-3.2s-3.2,1.4-3.2,3.2S106,49,107.8,49L107.8,49z"/>
	<path class="st0" d="M109.8,51.2H105v20.1h4.9c-0.1-0.3-0.1-1.1-0.1-2.2V51.2L109.8,51.2z"/>
	<path class="st1" d="M206.3,34.8c0-10.4-8.5-18.9-18.9-18.9c-10.3,0-18.7,8.2-18.9,18.5h0l-0.1,24.5l0,0l0,0V59h0
		c0,0.5,0.2,1,0.6,1.4c0.3,0.3,0.6,0.4,1,0.5l0.1,0c0.1,0,0.2,0,0.3,0l0.1,0h0c0.1,0,0.3,0,0.4,0c0.4-0.1,0.8-0.3,1.1-0.6l8-8.1
		c2.3,1,4.8,1.5,7.4,1.5C197.8,53.7,206.3,45.3,206.3,34.8"/>
	<path class="st2" d="M181.9,27.8c0,10.4-8.5,18.9-18.9,18.9c-10.3,0-18.7-8.2-18.9-18.5h0l-0.1-24.5l0,0l0,0V3.7h0
		c0-0.5,0.2-1,0.6-1.4c0.3-0.3,0.6-0.4,1-0.5l0.1,0c0.1,0,0.2,0,0.3,0l0.1,0h0c0.1,0,0.3,0,0.4,0c0.4,0.1,0.8,0.3,1.1,0.6l8,8.1
		c2.3-1,4.8-1.5,7.4-1.5C173.5,8.9,181.9,17.4,181.9,27.8"/>
	<g>
		<g>
			<defs>
				<path id="SVGID_1_" d="M181.9,27.8c0,10.4-8.5,18.9-18.9,18.9c-10.3,0-18.7-8.2-18.9-18.5h0l-0.1-24.5l0,0l0,0V3.7h0
					c0-0.5,0.2-1,0.6-1.4c0.3-0.3,0.6-0.4,1-0.5l0.1,0c0.1,0,0.2,0,0.3,0l0.1,0h0c0.1,0,0.3,0,0.4,0c0.4,0.1,0.8,0.3,1.1,0.6l8,8.1
					c2.3-1,4.8-1.5,7.4-1.5C173.5,8.9,181.9,17.4,181.9,27.8"/>
			</defs>
			<clipPath id="SVGID_00000041986868179255742790000000455355968571513486_">
				<use xlink:href="#SVGID_1_"  style="overflow:visible;"/>
			</clipPath>
			<path style="clip-path:url(#SVGID_00000041986868179255742790000000455355968571513486_);fill:#69C6B4;" d="M168.5,45.9l0-11.5h0
				c0.2-7.3,4.4-13.6,10.6-16.6c1.8,2.9,2.8,6.3,2.8,10C181.9,36.4,176.3,43.6,168.5,45.9"/>
		</g>
	</g>
</g>
</svg>
