<svg viewBox="0 0 1555 725" fill="none" xmlns="http://www.w3.org/2000/svg">
  <path d="m440.9 221.5v62.1h-62.9v-62.1h-377.2v503h502.9v-378h-62v-62.9h62v-62.1zm-112.5-138.1h69.5v70.3h-69.5zm304.4 41.4h53v52.1h-53zm-51.3-124.1h70.3v70.3h-70.3zm-28.1 200.2h52.1v52.1h-52.1zm-5.8 122.5h52.1v52.9h-52.1zm-96.8-249h53v52.9h-53z" fill="#e4042a"/>
  <path d="m358.1 573.1h105.1v-52.9h-105.1v-58.8h110.9v-52.9h-174.5v232.5c0 57.9 67 52.1 67 52.1h114.1v-53h-117.5z" fill="white"/>
  <path fill-rule="evenodd" d="m915.6 537.6l98.5 162.9h-74.5l-70.3-122.4-24 29.8v92.6h-63.7v-284.6h63.7v125.8h0.9c5.7-10.8 13.2-20.7 19.8-31.4l63.7-94.4h79.4zm565.8 163.8h-66.2c-4.2-8.2-10.8-31.4-19-66.1-8.3-36.4-20.7-45.5-47.2-46.4h-19v112.5h-63.7v-120.7h28.9v-54.6h-28.9v-105.1c20.7-4.1 51.3-6.6 86-6.6 42.2 0 72 6.6 91.8 23.1 17.4 13.3 26.5 33.1 26.5 59.6 0 35.6-25.6 60.4-49.6 69.5v0.8c19.8 8.3 30.6 27.3 38 53 8.3 32.2 16.6 69.5 22.4 81zm-74.5-199.3c0-25.7-18.2-39.7-47.1-39.7-15.8 0-24.9 0.8-29.8 2.4v77.8h25.6c32.3 0 51.3-15.7 51.3-40.5zm-669.1 115.8c0 47.1-35.6 87.7-114.2 87.7-32.2 0-64.5-8.3-80.2-17.4l13.2-52.9c16.6 9.1 43.9 17.3 71.2 17.3 28.9 0 44.6-11.5 44.6-30.6 0-17.3-13.2-28.1-47.1-39.7-47.2-17.4-78.6-43-78.6-85.2 0-48 40.5-85.2 107.5-85.2 32.3 0 55.4 6.6 72.8 14.1l-14.9 52.1c-10.7-5.8-31.4-14.1-58.7-14.1-28.1 0-41.4 13.3-41.4 28.1 0 17.4 15.8 25.7 53 40.6 49.6 18.2 72.8 44.7 72.8 85.2zm365.6 34.7h116.6v53h-113.3c0 0-67 6.6-67-52.1v-232.5h174.5v52.9h-110.8v59.6h105v52.1h-105zm450.7-211.8q0 8.3-4.1 15.8-3.3 6.6-10.7 10.7-6.7 4.2-14.9 4.2-7.5 0-14.9-4.2-6.6-4.1-10.8-10.7-4.1-7.5-4.1-14.9 0-8.3 4.1-14.9 4.2-7.5 10.8-11.6 7.4-4.1 14.9-4.1 8.2 0 14.9 4.1 7.4 4.1 10.7 10.8 4.1 7.4 4.1 14.8zm-4.1 0.9q0-7.5-3.3-13.3-3.3-5.8-9.1-9.1-5.8-3.3-13.2-3.3-6.7 0-12.4 3.3-6.7 3.3-10 9.1-3.3 5.8-3.3 13.3 0 6.6 3.3 12.4 3.3 5.8 10 9.1 5.7 4.1 12.4 4.1 7.4 0 13.2-4.1 5.8-3.3 9.1-9.1 3.3-5.8 3.3-12.4zm-38-17.4h14q5 0 7.5 0.8 2.4 0.9 3.3 3.3 1.6 2.5 1.6 5 0 2.5-0.8 5-0.8 0.8-3.3 2.4 2.5 1.7 3.3 2.5 0.8 1.7 0.8 5.8v3.3q0 3.3 0.9 5l0.8 0.8h-6.6q0-2.5 0-4.9l-0.9-4.2q0-2.5 0-3.3-0.8-0.8-2.4-1.6-0.9 0-4.2 0h-8.3v14h-5.7zm5.7 5v9.9h8.3q4.2 0 5-0.8 2.5-1.7 2.5-4.2-0.9-2.4-1.7-4.1-1.6-0.8-5.8-0.8z" fill="white"/>
</svg>
